<svg width="1840" height="1080" viewBox="0 0 1840 1080" fill="none" xmlns="http://www.w3.org/2000/svg">
<g clip-path="url(#clip0_5742_15562)">
<rect width="1840" height="1080" fill="#FF4343"/>
<ellipse cx="1444.11" cy="148.07" rx="155.769" ry="155.768" transform="rotate(53.2282 1444.11 148.07)" fill="#FF4343"/>
<path d="M1568.28 55.2716C1619.53 123.851 1605.49 220.992 1536.91 272.244C1468.33 323.495 1371.19 309.448 1319.94 240.868C1268.68 172.289 1282.73 75.1461 1351.31 23.895C1419.89 -27.3558 1517.03 -13.308 1568.28 55.2716Z" stroke="url(#paint0_linear_5742_15562)" stroke-opacity="0.7" stroke-width="1.5"/>
<ellipse cx="1394.18" cy="185.383" rx="155.769" ry="155.768" transform="rotate(53.2282 1394.18 185.383)" fill="#FF4343"/>
<path d="M1518.36 92.5844C1569.61 161.164 1555.56 258.305 1486.98 309.556C1418.4 360.808 1321.26 346.761 1270.01 278.181C1218.76 209.602 1232.81 112.459 1301.39 61.2078C1369.96 9.95702 1467.11 24.0049 1518.36 92.5844Z" stroke="url(#paint1_linear_5742_15562)" stroke-opacity="0.7" stroke-width="1.5"/>
<ellipse cx="1344.3" cy="222.659" rx="155.769" ry="155.768" transform="rotate(53.2282 1344.3 222.659)" fill="#FF4343"/>
<path d="M1468.47 129.861C1519.73 198.44 1505.68 295.582 1437.1 346.833C1368.52 398.084 1271.38 384.037 1220.13 315.457C1168.88 246.878 1182.92 149.735 1251.5 98.4841C1320.08 47.2333 1417.22 61.2811 1468.47 129.861Z" stroke="url(#paint2_linear_5742_15562)" stroke-opacity="0.7" stroke-width="1.5"/>
<ellipse cx="1294.37" cy="259.973" rx="155.769" ry="155.768" transform="rotate(53.2282 1294.37 259.973)" fill="#FF4343"/>
<path d="M1418.54 167.175C1469.79 235.754 1455.75 332.896 1387.17 384.147C1318.59 435.398 1221.45 421.351 1170.19 352.772C1118.94 284.192 1132.99 187.049 1201.57 135.798C1270.15 84.5475 1367.29 98.5953 1418.54 167.175Z" stroke="url(#paint3_linear_5742_15562)" stroke-opacity="0.7" stroke-width="1.5"/>
<ellipse cx="1244.49" cy="297.249" rx="155.769" ry="155.768" transform="rotate(53.2282 1244.49 297.249)" fill="#FF4343"/>
<path d="M1368.67 204.451C1419.92 273.03 1405.87 370.171 1337.29 421.423C1268.71 472.674 1171.57 458.627 1120.32 390.047C1069.07 321.468 1083.12 224.325 1151.7 173.074C1220.27 121.823 1317.42 135.871 1368.67 204.451Z" stroke="url(#paint4_linear_5742_15562)" stroke-opacity="0.7" stroke-width="1.5"/>
<ellipse cx="1194.56" cy="334.563" rx="155.769" ry="155.768" transform="rotate(53.2282 1194.56 334.563)" fill="#FF4343"/>
<path d="M1318.73 241.764C1369.99 310.344 1355.94 407.485 1287.36 458.737C1218.78 509.988 1121.64 495.941 1070.39 427.361C1019.14 358.782 1033.18 261.639 1101.76 210.388C1170.34 159.137 1267.48 173.185 1318.73 241.764Z" stroke="url(#paint5_linear_5742_15562)" stroke-opacity="0.7" stroke-width="1.5"/>
<ellipse cx="1144.64" cy="371.876" rx="155.769" ry="155.768" transform="rotate(53.2282 1144.64 371.876)" fill="#FF4343"/>
<path d="M1268.81 279.078C1320.06 347.657 1306.01 444.799 1237.44 496.05C1168.86 547.301 1071.71 533.254 1020.46 464.675C969.211 396.095 983.258 298.952 1051.84 247.701C1120.42 196.451 1217.56 210.498 1268.81 279.078Z" stroke="url(#paint6_linear_5742_15562)" stroke-opacity="0.7" stroke-width="1.5"/>
<ellipse cx="1094.75" cy="409.152" rx="155.769" ry="155.768" transform="rotate(53.2282 1094.75 409.152)" fill="#FF4343"/>
<path d="M1218.93 316.354C1270.18 384.934 1256.13 482.075 1187.55 533.326C1118.97 584.577 1021.83 570.531 970.581 501.951C919.329 433.371 933.376 336.229 1001.96 284.978C1070.53 233.727 1167.68 247.775 1218.93 316.354Z" stroke="url(#paint7_linear_5742_15562)" stroke-opacity="0.7" stroke-width="1.5"/>
<ellipse cx="1044.83" cy="446.466" rx="155.769" ry="155.768" transform="rotate(53.2282 1044.83 446.466)" fill="#FF4343"/>
<path d="M1169 353.668C1220.25 422.247 1206.21 519.388 1137.63 570.64C1069.05 621.891 971.907 607.844 920.656 539.264C869.404 470.685 883.451 373.542 952.031 322.291C1020.61 271.04 1117.75 285.088 1169 353.668Z" stroke="url(#paint8_linear_5742_15562)" stroke-opacity="0.7" stroke-width="1.5"/>
<ellipse cx="994.888" cy="483.781" rx="155.769" ry="155.768" transform="rotate(53.2282 994.888 483.781)" fill="#FF4343"/>
<path d="M1119.06 390.983C1170.31 459.562 1156.27 556.704 1087.69 607.955C1019.11 659.206 921.966 645.159 870.715 576.58C819.463 508 833.51 410.857 902.089 359.606C970.668 308.355 1067.81 322.403 1119.06 390.983Z" stroke="url(#paint9_linear_5742_15562)" stroke-opacity="0.7" stroke-width="1.5"/>
<ellipse cx="945.021" cy="521.055" rx="155.769" ry="155.768" transform="rotate(53.2282 945.021 521.055)" fill="#FF4343"/>
<path d="M1069.19 428.257C1120.45 496.837 1106.4 593.978 1037.82 645.229C969.241 696.48 872.099 682.433 820.847 613.854C769.596 545.274 783.643 448.132 852.222 396.881C920.801 345.63 1017.94 359.678 1069.19 428.257Z" stroke="url(#paint10_linear_5742_15562)" stroke-opacity="0.7" stroke-width="1.5"/>
<ellipse cx="895.081" cy="558.37" rx="155.769" ry="155.768" transform="rotate(53.2282 895.081 558.37)" fill="#FF4343"/>
<path d="M1019.25 465.572C1070.51 534.152 1056.46 631.293 987.88 682.544C919.301 733.795 822.159 719.749 770.908 651.169C719.656 582.59 733.703 485.447 802.283 434.196C870.862 382.945 968.003 396.993 1019.25 465.572Z" stroke="url(#paint11_linear_5742_15562)" stroke-opacity="0.7" stroke-width="1.5"/>
<ellipse cx="845.214" cy="595.645" rx="155.769" ry="155.768" transform="rotate(53.2282 845.214 595.645)" fill="#FF4343"/>
<path d="M969.388 502.847C1020.64 571.427 1006.59 668.568 938.013 719.819C869.434 771.07 772.292 757.023 721.041 688.444C669.789 619.864 683.836 522.722 752.415 471.47C820.994 420.22 918.136 434.267 969.388 502.847Z" stroke="url(#paint12_linear_5742_15562)" stroke-opacity="0.7" stroke-width="1.5"/>
<ellipse cx="795.275" cy="632.961" rx="155.769" ry="155.768" transform="rotate(53.2282 795.275 632.961)" fill="#FF4343"/>
<path d="M919.448 540.163C970.699 608.742 956.652 705.884 888.074 757.135C819.495 808.386 722.353 794.339 671.101 725.759C619.85 657.18 633.897 560.037 702.476 508.786C771.055 457.535 868.197 471.583 919.448 540.163Z" stroke="url(#paint13_linear_5742_15562)" stroke-opacity="0.7" stroke-width="1.5"/>
<ellipse cx="745.349" cy="670.274" rx="155.769" ry="155.768" transform="rotate(53.2282 745.349 670.274)" fill="#FF4343"/>
<path d="M869.522 577.475C920.774 646.055 906.727 743.196 838.148 794.447C769.569 845.699 672.427 831.652 621.175 763.072C569.924 694.493 583.971 597.35 652.55 546.099C721.129 494.848 818.271 508.896 869.522 577.475Z" stroke="url(#paint14_linear_5742_15562)" stroke-opacity="0.7" stroke-width="1.5"/>
<ellipse cx="695.466" cy="707.55" rx="155.769" ry="155.768" transform="rotate(53.2282 695.466 707.55)" fill="#FF4343"/>
<path d="M819.64 614.752C870.891 683.331 856.844 780.473 788.265 831.724C719.686 882.975 622.544 868.928 571.293 800.349C520.041 731.769 534.088 634.626 602.667 583.375C671.246 532.124 768.388 546.172 819.64 614.752Z" stroke="url(#paint15_linear_5742_15562)" stroke-opacity="0.7" stroke-width="1.5"/>
<ellipse cx="645.542" cy="744.863" rx="155.769" ry="155.768" transform="rotate(53.2282 645.542 744.863)" fill="#FF4343"/>
<path d="M769.716 652.065C820.967 720.645 806.92 817.786 738.341 869.037C669.762 920.288 572.62 906.241 521.369 837.662C470.117 769.082 484.164 671.94 552.743 620.688C621.323 569.438 718.464 583.485 769.716 652.065Z" stroke="url(#paint16_linear_5742_15562)" stroke-opacity="0.7" stroke-width="1.5"/>
<ellipse cx="595.659" cy="782.14" rx="155.769" ry="155.768" transform="rotate(53.2282 595.659 782.14)" fill="#FF4343"/>
<path d="M719.833 689.341C771.084 757.921 757.037 855.062 688.459 906.313C619.88 957.564 522.738 943.518 471.486 874.938C420.234 806.359 434.282 709.216 502.861 657.965C571.44 606.714 668.582 620.762 719.833 689.341Z" stroke="url(#paint17_linear_5742_15562)" stroke-opacity="0.7" stroke-width="1.5"/>
<ellipse cx="545.734" cy="819.449" rx="155.769" ry="155.768" transform="rotate(53.2282 545.734 819.449)" fill="#FF4343"/>
<path d="M669.907 726.651C721.158 795.23 707.111 892.372 638.533 943.623C569.954 994.874 472.812 980.827 421.56 912.248C370.309 843.668 384.356 746.525 452.935 695.274C521.514 644.023 618.656 658.071 669.907 726.651Z" stroke="url(#paint18_linear_5742_15562)" stroke-opacity="0.7" stroke-width="1.5"/>
<ellipse cx="495.808" cy="856.762" rx="155.769" ry="155.768" transform="rotate(53.2282 495.808 856.762)" fill="#FF4343"/>
<path d="M619.981 763.964C671.233 832.543 657.186 929.685 588.607 980.936C520.028 1032.19 422.886 1018.14 371.634 949.561C320.383 880.981 334.43 783.838 403.009 732.587C471.588 681.337 568.73 695.384 619.981 763.964Z" stroke="url(#paint19_linear_5742_15562)" stroke-opacity="0.7" stroke-width="1.5"/>
<ellipse cx="445.927" cy="894.039" rx="155.769" ry="155.768" transform="rotate(53.2282 445.927 894.039)" fill="#FF4343"/>
<path d="M570.101 801.241C621.352 869.82 607.305 966.961 538.726 1018.21C470.147 1069.46 373.005 1055.42 321.754 986.837C270.502 918.258 284.549 821.115 353.128 769.864C421.707 718.613 518.849 732.661 570.101 801.241Z" stroke="url(#paint20_linear_5742_15562)" stroke-opacity="0.7" stroke-width="1.5"/>
<ellipse cx="395.993" cy="931.353" rx="155.769" ry="155.768" transform="rotate(53.2282 395.993 931.353)" fill="#FF4343"/>
<path d="M520.167 838.555C571.418 907.134 557.371 1004.28 488.793 1055.53C420.214 1106.78 323.072 1092.73 271.82 1024.15C220.568 955.572 234.616 858.429 303.195 807.178C371.774 755.927 468.916 769.975 520.167 838.555Z" stroke="url(#paint21_linear_5742_15562)" stroke-opacity="0.7" stroke-width="1.5"/>
<ellipse cx="1311.73" cy="1063.75" rx="155.768" ry="155.769" transform="rotate(143.228 1311.73 1063.75)" fill="#FF4343"/>
<path d="M1404.53 1187.92C1335.95 1239.17 1238.81 1225.13 1187.56 1156.55C1136.31 1087.97 1150.36 990.824 1218.93 939.573C1287.51 888.322 1384.65 902.369 1435.91 970.949C1487.16 1039.53 1473.11 1136.67 1404.53 1187.92Z" stroke="url(#paint22_linear_5742_15562)" stroke-opacity="0.7" stroke-width="1.5"/>
<ellipse cx="1274.44" cy="1013.84" rx="155.768" ry="155.769" transform="rotate(143.228 1274.44 1013.84)" fill="#FF4343"/>
<path d="M1367.24 1138.01C1298.66 1189.26 1201.52 1175.21 1150.26 1106.63C1099.01 1038.06 1113.06 940.913 1181.64 889.662C1250.22 838.411 1347.36 852.459 1398.61 921.038C1449.86 989.618 1435.82 1086.76 1367.24 1138.01Z" stroke="url(#paint23_linear_5742_15562)" stroke-opacity="0.7" stroke-width="1.5"/>
<ellipse cx="1237.14" cy="963.927" rx="155.768" ry="155.769" transform="rotate(143.228 1237.14 963.927)" fill="#FF4343"/>
<path d="M1329.94 1088.1C1261.36 1139.35 1164.21 1125.3 1112.96 1056.73C1061.71 988.146 1075.76 891.004 1144.34 839.753C1212.92 788.502 1310.06 802.549 1361.31 871.128C1412.56 939.708 1398.52 1036.85 1329.94 1088.1Z" stroke="url(#paint24_linear_5742_15562)" stroke-opacity="0.7" stroke-width="1.5"/>
<ellipse cx="1199.84" cy="914.016" rx="155.768" ry="155.769" transform="rotate(143.228 1199.84 914.016)" fill="#FF4343"/>
<path d="M1292.64 1038.19C1224.06 1089.44 1126.92 1075.39 1075.67 1006.81C1024.42 938.235 1038.47 841.093 1107.04 789.842C1175.62 738.591 1272.76 752.638 1324.02 821.217C1375.27 889.797 1361.22 986.939 1292.64 1038.19Z" stroke="url(#paint25_linear_5742_15562)" stroke-opacity="0.7" stroke-width="1.5"/>
<ellipse cx="1162.54" cy="864.104" rx="155.768" ry="155.769" transform="rotate(143.228 1162.54 864.104)" fill="#FF4343"/>
<path d="M1255.34 988.278C1186.76 1039.53 1089.62 1025.48 1038.37 956.902C987.116 888.323 1001.16 791.181 1069.74 739.93C1138.32 688.679 1235.46 702.726 1286.71 771.306C1337.97 839.885 1323.92 937.027 1255.34 988.278Z" stroke="url(#paint26_linear_5742_15562)" stroke-opacity="0.7" stroke-width="1.5"/>
<ellipse cx="1125.25" cy="814.193" rx="155.768" ry="155.769" transform="rotate(143.228 1125.25 814.193)" fill="#FF4343"/>
<path d="M1218.05 938.367C1149.47 989.618 1052.33 975.571 1001.07 906.991C949.822 838.411 963.87 741.269 1032.45 690.018C1101.03 638.768 1198.17 652.815 1249.42 721.394C1300.67 789.974 1286.63 887.116 1218.05 938.367Z" stroke="url(#paint27_linear_5742_15562)" stroke-opacity="0.7" stroke-width="1.5"/>
<ellipse cx="1087.94" cy="764.284" rx="155.768" ry="155.769" transform="rotate(143.228 1087.94 764.284)" fill="#FF4343"/>
<path d="M1180.74 888.458C1112.16 939.709 1015.02 925.662 963.765 857.082C912.514 788.502 926.561 691.36 995.14 640.109C1063.72 588.858 1160.86 602.906 1212.11 671.485C1263.36 740.065 1249.32 837.207 1180.74 888.458Z" stroke="url(#paint28_linear_5742_15562)" stroke-opacity="0.7" stroke-width="1.5"/>
<ellipse cx="1050.64" cy="714.379" rx="155.768" ry="155.769" transform="rotate(143.228 1050.64 714.379)" fill="#FF4343"/>
<path d="M1143.44 838.553C1074.87 889.804 977.723 875.757 926.471 807.177C875.22 738.598 889.267 641.456 957.846 590.205C1026.43 538.954 1123.57 553.001 1174.82 621.58C1226.07 690.16 1212.02 787.302 1143.44 838.553Z" stroke="url(#paint29_linear_5742_15562)" stroke-opacity="0.7" stroke-width="1.5"/>
<ellipse cx="1013.34" cy="664.469" rx="155.768" ry="155.769" transform="rotate(143.228 1013.34 664.469)" fill="#FF4343"/>
<path d="M1106.14 788.643C1037.56 839.894 940.421 825.847 889.169 757.267C837.918 688.688 851.966 591.546 920.545 540.295C989.124 489.044 1086.26 503.091 1137.52 571.67C1188.77 640.25 1174.72 737.392 1106.14 788.643Z" stroke="url(#paint30_linear_5742_15562)" stroke-opacity="0.7" stroke-width="1.5"/>
<ellipse cx="976.049" cy="614.558" rx="155.768" ry="155.769" transform="rotate(143.228 976.049 614.558)" fill="#FF4343"/>
<path d="M1068.85 738.732C1000.27 789.983 903.127 775.936 851.875 707.356C800.624 638.776 814.672 541.634 883.251 490.383C951.83 439.133 1048.97 453.18 1100.22 521.759C1151.47 590.339 1137.43 687.481 1068.85 738.732Z" stroke="url(#paint31_linear_5742_15562)" stroke-opacity="0.7" stroke-width="1.5"/>
<ellipse cx="938.74" cy="564.646" rx="155.768" ry="155.769" transform="rotate(143.228 938.74 564.646)" fill="#FF4343"/>
<path d="M1031.54 688.821C962.96 740.072 865.817 726.024 814.566 657.445C763.314 588.865 777.362 491.723 845.941 440.472C914.52 389.221 1011.66 403.268 1062.91 471.848C1114.16 540.427 1100.12 637.569 1031.54 688.821Z" stroke="url(#paint32_linear_5742_15562)" stroke-opacity="0.7" stroke-width="1.5"/>
<ellipse cx="901.446" cy="514.736" rx="155.768" ry="155.769" transform="rotate(143.228 901.446 514.736)" fill="#FF4343"/>
<path d="M994.245 638.91C925.666 690.161 828.523 676.114 777.272 607.534C726.021 538.954 740.068 441.812 808.647 390.561C877.226 339.311 974.367 353.358 1025.62 421.937C1076.87 490.517 1062.82 587.659 994.245 638.91Z" stroke="url(#paint33_linear_5742_15562)" stroke-opacity="0.7" stroke-width="1.5"/>
<ellipse cx="864.144" cy="464.826" rx="155.768" ry="155.769" transform="rotate(143.228 864.144 464.826)" fill="#FF4343"/>
<path d="M956.943 589C888.364 640.251 791.222 626.204 739.97 557.624C688.719 489.045 702.766 391.903 771.345 340.652C839.924 289.401 937.066 303.448 988.317 372.028C1039.57 440.607 1025.52 537.749 956.943 589Z" stroke="url(#paint34_linear_5742_15562)" stroke-opacity="0.7" stroke-width="1.5"/>
<ellipse cx="826.851" cy="414.915" rx="155.768" ry="155.769" transform="rotate(143.228 826.851 414.915)" fill="#FF4343"/>
<path d="M919.65 539.089C851.071 590.341 753.929 576.293 702.677 507.713C651.426 439.134 665.473 341.992 734.052 290.741C802.631 239.49 899.773 253.537 951.024 322.117C1002.28 390.696 988.229 487.838 919.65 539.089Z" stroke="url(#paint35_linear_5742_15562)" stroke-opacity="0.7" stroke-width="1.5"/>
<ellipse cx="789.54" cy="365.007" rx="155.768" ry="155.769" transform="rotate(143.228 789.54 365.007)" fill="#FF4343"/>
<path d="M882.34 489.181C813.761 540.432 716.618 526.384 665.367 457.805C614.115 389.225 628.163 292.083 696.742 240.832C765.321 189.581 862.462 203.629 913.714 272.208C964.965 340.787 950.918 437.93 882.34 489.181Z" stroke="url(#paint36_linear_5742_15562)" stroke-opacity="0.7" stroke-width="1.5"/>
<ellipse cx="752.247" cy="315.096" rx="155.768" ry="155.769" transform="rotate(143.228 752.247 315.096)" fill="#FF4343"/>
<path d="M845.047 439.27C776.468 490.521 679.325 476.474 628.074 407.894C576.822 339.314 590.87 242.173 659.449 190.921C728.028 139.671 825.169 153.718 876.421 222.297C927.672 290.877 913.625 388.019 845.047 439.27Z" stroke="url(#paint37_linear_5742_15562)" stroke-opacity="0.7" stroke-width="1.5"/>
<ellipse cx="714.952" cy="265.185" rx="155.768" ry="155.769" transform="rotate(143.228 714.952 265.185)" fill="#FF4343"/>
<path d="M807.752 389.359C739.173 440.61 642.03 426.563 590.779 357.983C539.527 289.404 553.575 192.262 622.154 141.011C690.733 89.7598 787.874 103.807 839.126 172.386C890.377 240.966 876.331 338.108 807.752 389.359Z" stroke="url(#paint38_linear_5742_15562)" stroke-opacity="0.7" stroke-width="1.5"/>
<ellipse cx="677.652" cy="215.273" rx="155.768" ry="155.769" transform="rotate(143.228 677.652 215.273)" fill="#FF4343"/>
<path d="M770.451 339.447C701.872 390.698 604.729 376.651 553.478 308.071C502.227 239.492 516.274 142.35 584.853 91.0987C653.432 39.848 750.573 53.8952 801.825 122.475C853.076 191.054 839.03 288.196 770.451 339.447Z" stroke="url(#paint39_linear_5742_15562)" stroke-opacity="0.7" stroke-width="1.5"/>
<ellipse cx="640.343" cy="165.364" rx="155.768" ry="155.769" transform="rotate(143.228 640.343 165.364)" fill="#FF4343"/>
<path d="M733.142 289.538C664.563 340.789 567.421 326.742 516.169 258.162C464.918 189.582 478.966 92.4404 547.545 41.1893C616.124 -10.0615 713.265 3.98576 764.516 72.5651C815.768 141.145 801.721 238.287 733.142 289.538Z" stroke="url(#paint40_linear_5742_15562)" stroke-opacity="0.7" stroke-width="1.5"/>
<ellipse cx="603.048" cy="115.453" rx="155.768" ry="155.769" transform="rotate(143.228 603.048 115.453)" fill="#FF4343"/>
<path d="M695.847 239.627C627.268 290.878 530.126 276.83 478.874 208.251C427.623 139.671 441.671 42.5292 510.25 -8.72183C578.829 -59.9726 675.97 -45.9254 727.221 22.654C778.473 91.2335 764.426 188.376 695.847 239.627Z" stroke="url(#paint41_linear_5742_15562)" stroke-opacity="0.7" stroke-width="1.5"/>
<ellipse cx="565.755" cy="65.5478" rx="155.768" ry="155.769" transform="rotate(143.228 565.755 65.5478)" fill="#FF4343"/>
<path d="M658.555 189.722C589.975 240.973 492.833 226.926 441.581 158.346C390.33 89.7664 404.378 -7.37556 472.957 -58.6266C541.536 -109.877 638.677 -95.8302 689.928 -27.2508C741.18 41.3287 727.133 138.471 658.555 189.722Z" stroke="url(#paint42_linear_5742_15562)" stroke-opacity="0.7" stroke-width="1.5"/>
<ellipse cx="528.452" cy="15.6376" rx="155.768" ry="155.769" transform="rotate(143.228 528.452 15.6376)" fill="#FF4343"/>
<path d="M621.252 139.812C552.673 191.063 455.53 177.016 404.279 108.436C353.027 39.8562 367.075 -57.2857 435.654 -108.537C504.233 -159.788 601.374 -145.74 652.626 -77.161C703.877 -8.58142 689.831 88.5607 621.252 139.812Z" stroke="url(#paint43_linear_5742_15562)" stroke-opacity="0.7" stroke-width="1.5"/>
<circle cx="155.769" cy="155.769" r="155.769" transform="matrix(-0.989705 -0.14312 0.143112 -0.989707 958.312 1363.65)" fill="#FF4343"/>
<circle cx="155.769" cy="155.769" r="155.019" transform="matrix(-0.989705 -0.14312 0.143112 -0.989707 958.312 1363.65)" stroke="url(#paint44_linear_5742_15562)" stroke-opacity="0.7" stroke-width="1.5"/>
<circle cx="155.769" cy="155.769" r="155.769" transform="matrix(-0.989705 -0.14312 0.143112 -0.989707 967.184 1302.02)" fill="#FF4343"/>
<circle cx="155.769" cy="155.769" r="155.019" transform="matrix(-0.989705 -0.14312 0.143112 -0.989707 967.184 1302.02)" stroke="url(#paint45_linear_5742_15562)" stroke-opacity="0.7" stroke-width="1.5"/>
<circle cx="155.769" cy="155.769" r="155.769" transform="matrix(-0.989705 -0.14312 0.143112 -0.989707 976.102 1240.36)" fill="#FF4343"/>
<circle cx="155.769" cy="155.769" r="155.019" transform="matrix(-0.989705 -0.14312 0.143112 -0.989707 976.102 1240.36)" stroke="url(#paint46_linear_5742_15562)" stroke-opacity="0.7" stroke-width="1.5"/>
<circle cx="155.769" cy="155.769" r="155.769" transform="matrix(-0.989705 -0.14312 0.143112 -0.989707 985.045 1178.67)" fill="#FF4343"/>
<circle cx="155.769" cy="155.769" r="155.019" transform="matrix(-0.989705 -0.14312 0.143112 -0.989707 985.045 1178.67)" stroke="url(#paint47_linear_5742_15562)" stroke-opacity="0.7" stroke-width="1.5"/>
<circle cx="155.769" cy="155.769" r="155.769" transform="matrix(-0.989705 -0.14312 0.143112 -0.989707 993.953 1117.01)" fill="#FF4343"/>
<circle cx="155.769" cy="155.769" r="155.019" transform="matrix(-0.989705 -0.14312 0.143112 -0.989707 993.953 1117.01)" stroke="url(#paint48_linear_5742_15562)" stroke-opacity="0.7" stroke-width="1.5"/>
<circle cx="155.769" cy="155.769" r="155.769" transform="matrix(-0.989705 -0.14312 0.143112 -0.989707 1002.86 1055.35)" fill="#FF4343"/>
<circle cx="155.769" cy="155.769" r="155.019" transform="matrix(-0.989705 -0.14312 0.143112 -0.989707 1002.86 1055.35)" stroke="url(#paint49_linear_5742_15562)" stroke-opacity="0.7" stroke-width="1.5"/>
<circle cx="155.769" cy="155.769" r="155.769" transform="matrix(-0.989705 -0.14312 0.143112 -0.989707 1011.76 993.69)" fill="#FF4343"/>
<circle cx="155.769" cy="155.769" r="155.019" transform="matrix(-0.989705 -0.14312 0.143112 -0.989707 1011.76 993.69)" stroke="url(#paint50_linear_5742_15562)" stroke-opacity="0.7" stroke-width="1.5"/>
<circle cx="155.769" cy="155.769" r="155.769" transform="matrix(-0.989705 -0.14312 0.143112 -0.989707 1020.72 932)" fill="#FF4343"/>
<circle cx="155.769" cy="155.769" r="155.019" transform="matrix(-0.989705 -0.14312 0.143112 -0.989707 1020.72 932)" stroke="url(#paint51_linear_5742_15562)" stroke-opacity="0.7" stroke-width="1.5"/>
<circle cx="155.769" cy="155.769" r="155.769" transform="matrix(-0.989705 -0.14312 0.143112 -0.989707 1029.62 870.335)" fill="#FF4343"/>
<circle cx="155.769" cy="155.769" r="155.019" transform="matrix(-0.989705 -0.14312 0.143112 -0.989707 1029.62 870.335)" stroke="url(#paint52_linear_5742_15562)" stroke-opacity="0.7" stroke-width="1.5"/>
<circle cx="155.769" cy="155.769" r="155.769" transform="matrix(-0.989705 -0.14312 0.143112 -0.989707 1038.53 808.677)" fill="#FF4343"/>
<circle cx="155.769" cy="155.769" r="155.019" transform="matrix(-0.989705 -0.14312 0.143112 -0.989707 1038.53 808.677)" stroke="url(#paint53_linear_5742_15562)" stroke-opacity="0.7" stroke-width="1.5"/>
<circle cx="155.769" cy="155.769" r="155.769" transform="matrix(-0.989705 -0.14312 0.143112 -0.989707 1047.43 747.023)" fill="#FF4343"/>
<circle cx="155.769" cy="155.769" r="155.019" transform="matrix(-0.989705 -0.14312 0.143112 -0.989707 1047.43 747.023)" stroke="url(#paint54_linear_5742_15562)" stroke-opacity="0.7" stroke-width="1.5"/>
<circle cx="155.769" cy="155.769" r="155.769" transform="matrix(-0.989705 -0.14312 0.143112 -0.989707 1056.39 685.327)" fill="#FF4343"/>
<circle cx="155.769" cy="155.769" r="155.019" transform="matrix(-0.989705 -0.14312 0.143112 -0.989707 1056.39 685.327)" stroke="url(#paint55_linear_5742_15562)" stroke-opacity="0.7" stroke-width="1.5"/>
<circle cx="155.769" cy="155.769" r="155.769" transform="matrix(-0.989705 -0.14312 0.143112 -0.989707 1065.3 623.678)" fill="#FF4343"/>
<circle cx="155.769" cy="155.769" r="155.019" transform="matrix(-0.989705 -0.14312 0.143112 -0.989707 1065.3 623.678)" stroke="url(#paint56_linear_5742_15562)" stroke-opacity="0.7" stroke-width="1.5"/>
<circle cx="155.769" cy="155.769" r="155.769" transform="matrix(-0.989705 -0.14312 0.143112 -0.989707 1074.2 562.013)" fill="#FF4343"/>
<circle cx="155.769" cy="155.769" r="155.019" transform="matrix(-0.989705 -0.14312 0.143112 -0.989707 1074.2 562.013)" stroke="url(#paint57_linear_5742_15562)" stroke-opacity="0.7" stroke-width="1.5"/>
<circle cx="155.769" cy="155.769" r="155.769" transform="matrix(-0.989705 -0.14312 0.143112 -0.989707 1083.11 500.355)" fill="#FF4343"/>
<circle cx="155.769" cy="155.769" r="155.019" transform="matrix(-0.989705 -0.14312 0.143112 -0.989707 1083.11 500.355)" stroke="url(#paint58_linear_5742_15562)" stroke-opacity="0.7" stroke-width="1.5"/>
<circle cx="155.769" cy="155.769" r="155.769" transform="matrix(-0.989705 -0.14312 0.143112 -0.989707 1092.01 438.702)" fill="#FF4343"/>
<circle cx="155.769" cy="155.769" r="155.019" transform="matrix(-0.989705 -0.14312 0.143112 -0.989707 1092.01 438.702)" stroke="url(#paint59_linear_5742_15562)" stroke-opacity="0.7" stroke-width="1.5"/>
<circle cx="155.769" cy="155.769" r="155.769" transform="matrix(-0.989705 -0.14312 0.143112 -0.989707 1100.97 377.005)" fill="#FF4343"/>
<circle cx="155.769" cy="155.769" r="155.019" transform="matrix(-0.989705 -0.14312 0.143112 -0.989707 1100.97 377.005)" stroke="url(#paint60_linear_5742_15562)" stroke-opacity="0.7" stroke-width="1.5"/>
<circle cx="155.769" cy="155.769" r="155.769" transform="matrix(-0.989705 -0.14312 0.143112 -0.989707 1109.88 315.346)" fill="#FF4343"/>
<circle cx="155.769" cy="155.769" r="155.019" transform="matrix(-0.989705 -0.14312 0.143112 -0.989707 1109.88 315.346)" stroke="url(#paint61_linear_5742_15562)" stroke-opacity="0.7" stroke-width="1.5"/>
<circle cx="155.769" cy="155.769" r="155.769" transform="matrix(-0.989705 -0.14312 0.143112 -0.989707 1118.78 253.689)" fill="#FF4343"/>
<circle cx="155.769" cy="155.769" r="155.019" transform="matrix(-0.989705 -0.14312 0.143112 -0.989707 1118.78 253.689)" stroke="url(#paint62_linear_5742_15562)" stroke-opacity="0.7" stroke-width="1.5"/>
<circle cx="155.769" cy="155.769" r="155.769" transform="matrix(-0.989705 -0.14312 0.143112 -0.989707 1127.69 192.03)" fill="#FF4343"/>
<circle cx="155.769" cy="155.769" r="155.019" transform="matrix(-0.989705 -0.14312 0.143112 -0.989707 1127.69 192.03)" stroke="url(#paint63_linear_5742_15562)" stroke-opacity="0.7" stroke-width="1.5"/>
<circle cx="155.769" cy="155.769" r="155.769" transform="matrix(-0.989705 -0.14312 0.143112 -0.989707 1136.65 130.337)" fill="#FF4343"/>
<circle cx="155.769" cy="155.769" r="155.019" transform="matrix(-0.989705 -0.14312 0.143112 -0.989707 1136.65 130.337)" stroke="url(#paint64_linear_5742_15562)" stroke-opacity="0.7" stroke-width="1.5"/>
<circle cx="155.769" cy="155.769" r="155.769" transform="matrix(-0.989705 -0.14312 0.143112 -0.989707 1145.55 68.6799)" fill="#FF4343"/>
<circle cx="155.769" cy="155.769" r="155.019" transform="matrix(-0.989705 -0.14312 0.143112 -0.989707 1145.55 68.6799)" stroke="url(#paint65_linear_5742_15562)" stroke-opacity="0.7" stroke-width="1.5"/>
<circle cx="155.769" cy="155.769" r="155.769" transform="matrix(0.143112 -0.989707 0.989705 0.14312 96.1113 577.948)" fill="#FF4343"/>
<circle cx="155.769" cy="155.769" r="155.019" transform="matrix(0.143112 -0.989707 0.989705 0.14312 96.1113 577.948)" stroke="url(#paint66_linear_5742_15562)" stroke-opacity="0.7" stroke-width="1.5"/>
<circle cx="155.769" cy="155.769" r="155.769" transform="matrix(0.143112 -0.989707 0.989705 0.14312 157.773 586.874)" fill="#FF4343"/>
<circle cx="155.769" cy="155.769" r="155.019" transform="matrix(0.143112 -0.989707 0.989705 0.14312 157.773 586.874)" stroke="url(#paint67_linear_5742_15562)" stroke-opacity="0.7" stroke-width="1.5"/>
<circle cx="155.769" cy="155.769" r="155.769" transform="matrix(0.143112 -0.989707 0.989705 0.14312 219.428 595.794)" fill="#FF4343"/>
<circle cx="155.769" cy="155.769" r="155.019" transform="matrix(0.143112 -0.989707 0.989705 0.14312 219.428 595.794)" stroke="url(#paint68_linear_5742_15562)" stroke-opacity="0.7" stroke-width="1.5"/>
<circle cx="155.769" cy="155.769" r="155.769" transform="matrix(0.143112 -0.989707 0.989705 0.14312 281.133 604.684)" fill="#FF4343"/>
<circle cx="155.769" cy="155.769" r="155.019" transform="matrix(0.143112 -0.989707 0.989705 0.14312 281.133 604.684)" stroke="url(#paint69_linear_5742_15562)" stroke-opacity="0.7" stroke-width="1.5"/>
<circle cx="155.769" cy="155.769" r="155.769" transform="matrix(0.143112 -0.989707 0.989705 0.14312 342.787 613.61)" fill="#FF4343"/>
<circle cx="155.769" cy="155.769" r="155.019" transform="matrix(0.143112 -0.989707 0.989705 0.14312 342.787 613.61)" stroke="url(#paint70_linear_5742_15562)" stroke-opacity="0.7" stroke-width="1.5"/>
<circle cx="155.769" cy="155.769" r="155.769" transform="matrix(0.143112 -0.989707 0.989705 0.14312 404.449 622.538)" fill="#FF4343"/>
<circle cx="155.769" cy="155.769" r="155.019" transform="matrix(0.143112 -0.989707 0.989705 0.14312 404.449 622.538)" stroke="url(#paint71_linear_5742_15562)" stroke-opacity="0.7" stroke-width="1.5"/>
<circle cx="155.769" cy="155.769" r="155.769" transform="matrix(0.143112 -0.989707 0.989705 0.14312 466.096 631.465)" fill="#FF4343"/>
<circle cx="155.769" cy="155.769" r="155.019" transform="matrix(0.143112 -0.989707 0.989705 0.14312 466.096 631.465)" stroke="url(#paint72_linear_5742_15562)" stroke-opacity="0.7" stroke-width="1.5"/>
<circle cx="155.769" cy="155.769" r="155.769" transform="matrix(0.143112 -0.989707 0.989705 0.14312 527.793 640.348)" fill="#FF4343"/>
<circle cx="155.769" cy="155.769" r="155.019" transform="matrix(0.143112 -0.989707 0.989705 0.14312 527.793 640.348)" stroke="url(#paint73_linear_5742_15562)" stroke-opacity="0.7" stroke-width="1.5"/>
<circle cx="155.769" cy="155.769" r="155.769" transform="matrix(0.143112 -0.989707 0.989705 0.14312 589.457 649.281)" fill="#FF4343"/>
<circle cx="155.769" cy="155.769" r="155.019" transform="matrix(0.143112 -0.989707 0.989705 0.14312 589.457 649.281)" stroke="url(#paint74_linear_5742_15562)" stroke-opacity="0.7" stroke-width="1.5"/>
<circle cx="155.769" cy="155.769" r="155.769" transform="matrix(0.143112 -0.989707 0.989705 0.14312 651.111 658.207)" fill="#FF4343"/>
<circle cx="155.769" cy="155.769" r="155.019" transform="matrix(0.143112 -0.989707 0.989705 0.14312 651.111 658.207)" stroke="url(#paint75_linear_5742_15562)" stroke-opacity="0.7" stroke-width="1.5"/>
<circle cx="155.769" cy="155.769" r="155.769" transform="matrix(0.143112 -0.989707 0.989705 0.14312 712.773 667.128)" fill="#FF4343"/>
<circle cx="155.769" cy="155.769" r="155.019" transform="matrix(0.143112 -0.989707 0.989705 0.14312 712.773 667.128)" stroke="url(#paint76_linear_5742_15562)" stroke-opacity="0.7" stroke-width="1.5"/>
<circle cx="155.769" cy="155.769" r="155.769" transform="matrix(0.143112 -0.989707 0.989705 0.14312 774.471 676.018)" fill="#FF4343"/>
<circle cx="155.769" cy="155.769" r="155.019" transform="matrix(0.143112 -0.989707 0.989705 0.14312 774.471 676.018)" stroke="url(#paint77_linear_5742_15562)" stroke-opacity="0.7" stroke-width="1.5"/>
<circle cx="155.769" cy="155.769" r="155.769" transform="matrix(0.143112 -0.989707 0.989705 0.14312 836.117 684.939)" fill="#FF4343"/>
<circle cx="155.769" cy="155.769" r="155.019" transform="matrix(0.143112 -0.989707 0.989705 0.14312 836.117 684.939)" stroke="url(#paint78_linear_5742_15562)" stroke-opacity="0.7" stroke-width="1.5"/>
<circle cx="155.769" cy="155.769" r="155.769" transform="matrix(0.143112 -0.989707 0.989705 0.14312 897.787 693.871)" fill="#FF4343"/>
<circle cx="155.769" cy="155.769" r="155.019" transform="matrix(0.143112 -0.989707 0.989705 0.14312 897.787 693.871)" stroke="url(#paint79_linear_5742_15562)" stroke-opacity="0.7" stroke-width="1.5"/>
<circle cx="155.769" cy="155.769" r="155.769" transform="matrix(0.143112 -0.989707 0.989705 0.14312 959.434 702.798)" fill="#FF4343"/>
<circle cx="155.769" cy="155.769" r="155.019" transform="matrix(0.143112 -0.989707 0.989705 0.14312 959.434 702.798)" stroke="url(#paint80_linear_5742_15562)" stroke-opacity="0.7" stroke-width="1.5"/>
<circle cx="155.769" cy="155.769" r="155.769" transform="matrix(0.143112 -0.989707 0.989705 0.14312 1021.1 711.719)" fill="#FF4343"/>
<circle cx="155.769" cy="155.769" r="155.019" transform="matrix(0.143112 -0.989707 0.989705 0.14312 1021.1 711.719)" stroke="url(#paint81_linear_5742_15562)" stroke-opacity="0.7" stroke-width="1.5"/>
<circle cx="155.769" cy="155.769" r="155.769" transform="matrix(0.143112 -0.989707 0.989705 0.14312 1082.79 720.608)" fill="#FF4343"/>
<circle cx="155.769" cy="155.769" r="155.019" transform="matrix(0.143112 -0.989707 0.989705 0.14312 1082.79 720.608)" stroke="url(#paint82_linear_5742_15562)" stroke-opacity="0.7" stroke-width="1.5"/>
<circle cx="155.769" cy="155.769" r="155.769" transform="matrix(0.143112 -0.989707 0.989705 0.14312 1144.46 729.534)" fill="#FF4343"/>
<circle cx="155.769" cy="155.769" r="155.019" transform="matrix(0.143112 -0.989707 0.989705 0.14312 1144.46 729.534)" stroke="url(#paint83_linear_5742_15562)" stroke-opacity="0.7" stroke-width="1.5"/>
<circle cx="155.769" cy="155.769" r="155.769" transform="matrix(0.143112 -0.989707 0.989705 0.14312 1206.11 738.46)" fill="#FF4343"/>
<circle cx="155.769" cy="155.769" r="155.019" transform="matrix(0.143112 -0.989707 0.989705 0.14312 1206.11 738.46)" stroke="url(#paint84_linear_5742_15562)" stroke-opacity="0.7" stroke-width="1.5"/>
<circle cx="155.769" cy="155.769" r="155.769" transform="matrix(0.143112 -0.989707 0.989705 0.14312 1267.76 747.388)" fill="#FF4343"/>
<circle cx="155.769" cy="155.769" r="155.019" transform="matrix(0.143112 -0.989707 0.989705 0.14312 1267.76 747.388)" stroke="url(#paint85_linear_5742_15562)" stroke-opacity="0.7" stroke-width="1.5"/>
<circle cx="155.769" cy="155.769" r="155.769" transform="matrix(0.143112 -0.989707 0.989705 0.14312 1329.47 756.271)" fill="#FF4343"/>
<circle cx="155.769" cy="155.769" r="155.019" transform="matrix(0.143112 -0.989707 0.989705 0.14312 1329.47 756.271)" stroke="url(#paint86_linear_5742_15562)" stroke-opacity="0.7" stroke-width="1.5"/>
<circle cx="155.769" cy="155.769" r="155.769" transform="matrix(0.143112 -0.989707 0.989705 0.14312 1391.12 765.198)" fill="#FF4343"/>
<circle cx="155.769" cy="155.769" r="155.019" transform="matrix(0.143112 -0.989707 0.989705 0.14312 1391.12 765.198)" stroke="url(#paint87_linear_5742_15562)" stroke-opacity="0.7" stroke-width="1.5"/>
</g>
<defs>
<linearGradient id="paint0_linear_5742_15562" x1="1568.88" y1="54.8223" x2="1319.33" y2="241.317" gradientUnits="userSpaceOnUse">
<stop stop-color="white"/>
<stop offset="1" stop-color="#F09191"/>
</linearGradient>
<linearGradient id="paint1_linear_5742_15562" x1="1518.96" y1="92.1352" x2="1269.41" y2="278.63" gradientUnits="userSpaceOnUse">
<stop stop-color="white"/>
<stop offset="1" stop-color="#F09191"/>
</linearGradient>
<linearGradient id="paint2_linear_5742_15562" x1="1469.08" y1="129.411" x2="1219.53" y2="315.906" gradientUnits="userSpaceOnUse">
<stop stop-color="white"/>
<stop offset="1" stop-color="#F09191"/>
</linearGradient>
<linearGradient id="paint3_linear_5742_15562" x1="1419.14" y1="166.726" x2="1169.59" y2="353.22" gradientUnits="userSpaceOnUse">
<stop stop-color="white"/>
<stop offset="1" stop-color="#F09191"/>
</linearGradient>
<linearGradient id="paint4_linear_5742_15562" x1="1369.27" y1="204.001" x2="1119.72" y2="390.496" gradientUnits="userSpaceOnUse">
<stop stop-color="white"/>
<stop offset="1" stop-color="#F09191"/>
</linearGradient>
<linearGradient id="paint5_linear_5742_15562" x1="1319.33" y1="241.315" x2="1069.79" y2="427.81" gradientUnits="userSpaceOnUse">
<stop stop-color="white"/>
<stop offset="1" stop-color="#F09191"/>
</linearGradient>
<linearGradient id="paint6_linear_5742_15562" x1="1269.41" y1="278.629" x2="1019.86" y2="465.123" gradientUnits="userSpaceOnUse">
<stop stop-color="white"/>
<stop offset="1" stop-color="#F09191"/>
</linearGradient>
<linearGradient id="paint7_linear_5742_15562" x1="1219.53" y1="315.905" x2="969.98" y2="502.4" gradientUnits="userSpaceOnUse">
<stop stop-color="white"/>
<stop offset="1" stop-color="#F09191"/>
</linearGradient>
<linearGradient id="paint8_linear_5742_15562" x1="1169.6" y1="353.218" x2="920.055" y2="539.713" gradientUnits="userSpaceOnUse">
<stop stop-color="white"/>
<stop offset="1" stop-color="#F09191"/>
</linearGradient>
<linearGradient id="paint9_linear_5742_15562" x1="1119.66" y1="390.534" x2="870.114" y2="577.028" gradientUnits="userSpaceOnUse">
<stop stop-color="white"/>
<stop offset="1" stop-color="#F09191"/>
</linearGradient>
<linearGradient id="paint10_linear_5742_15562" x1="1069.79" y1="427.808" x2="820.246" y2="614.303" gradientUnits="userSpaceOnUse">
<stop stop-color="white"/>
<stop offset="1" stop-color="#F09191"/>
</linearGradient>
<linearGradient id="paint11_linear_5742_15562" x1="1019.86" y1="465.123" x2="770.307" y2="651.618" gradientUnits="userSpaceOnUse">
<stop stop-color="white"/>
<stop offset="1" stop-color="#F09191"/>
</linearGradient>
<linearGradient id="paint12_linear_5742_15562" x1="969.988" y1="502.398" x2="720.44" y2="688.892" gradientUnits="userSpaceOnUse">
<stop stop-color="white"/>
<stop offset="1" stop-color="#F09191"/>
</linearGradient>
<linearGradient id="paint13_linear_5742_15562" x1="920.049" y1="539.713" x2="670.5" y2="726.208" gradientUnits="userSpaceOnUse">
<stop stop-color="white"/>
<stop offset="1" stop-color="#F09191"/>
</linearGradient>
<linearGradient id="paint14_linear_5742_15562" x1="870.123" y1="577.026" x2="620.575" y2="763.521" gradientUnits="userSpaceOnUse">
<stop stop-color="white"/>
<stop offset="1" stop-color="#F09191"/>
</linearGradient>
<linearGradient id="paint15_linear_5742_15562" x1="820.24" y1="614.303" x2="570.692" y2="800.797" gradientUnits="userSpaceOnUse">
<stop stop-color="white"/>
<stop offset="1" stop-color="#F09191"/>
</linearGradient>
<linearGradient id="paint16_linear_5742_15562" x1="770.316" y1="651.616" x2="520.768" y2="838.11" gradientUnits="userSpaceOnUse">
<stop stop-color="white"/>
<stop offset="1" stop-color="#F09191"/>
</linearGradient>
<linearGradient id="paint17_linear_5742_15562" x1="720.434" y1="688.892" x2="470.885" y2="875.387" gradientUnits="userSpaceOnUse">
<stop stop-color="white"/>
<stop offset="1" stop-color="#F09191"/>
</linearGradient>
<linearGradient id="paint18_linear_5742_15562" x1="670.508" y1="726.201" x2="420.959" y2="912.696" gradientUnits="userSpaceOnUse">
<stop stop-color="white"/>
<stop offset="1" stop-color="#F09191"/>
</linearGradient>
<linearGradient id="paint19_linear_5742_15562" x1="620.582" y1="763.515" x2="371.034" y2="950.009" gradientUnits="userSpaceOnUse">
<stop stop-color="white"/>
<stop offset="1" stop-color="#F09191"/>
</linearGradient>
<linearGradient id="paint20_linear_5742_15562" x1="570.701" y1="800.791" x2="321.153" y2="987.286" gradientUnits="userSpaceOnUse">
<stop stop-color="white"/>
<stop offset="1" stop-color="#F09191"/>
</linearGradient>
<linearGradient id="paint21_linear_5742_15562" x1="520.768" y1="838.106" x2="271.219" y2="1024.6" gradientUnits="userSpaceOnUse">
<stop stop-color="white"/>
<stop offset="1" stop-color="#F09191"/>
</linearGradient>
<linearGradient id="paint22_linear_5742_15562" x1="1404.98" y1="1188.52" x2="1218.48" y2="938.972" gradientUnits="userSpaceOnUse">
<stop stop-color="white"/>
<stop offset="1" stop-color="#F09191"/>
</linearGradient>
<linearGradient id="paint23_linear_5742_15562" x1="1367.69" y1="1138.61" x2="1181.19" y2="889.061" gradientUnits="userSpaceOnUse">
<stop stop-color="white"/>
<stop offset="1" stop-color="#F09191"/>
</linearGradient>
<linearGradient id="paint24_linear_5742_15562" x1="1330.38" y1="1088.7" x2="1143.89" y2="839.152" gradientUnits="userSpaceOnUse">
<stop stop-color="white"/>
<stop offset="1" stop-color="#F09191"/>
</linearGradient>
<linearGradient id="paint25_linear_5742_15562" x1="1293.09" y1="1038.79" x2="1106.59" y2="789.241" gradientUnits="userSpaceOnUse">
<stop stop-color="white"/>
<stop offset="1" stop-color="#F09191"/>
</linearGradient>
<linearGradient id="paint26_linear_5742_15562" x1="1255.79" y1="988.879" x2="1069.29" y2="739.329" gradientUnits="userSpaceOnUse">
<stop stop-color="white"/>
<stop offset="1" stop-color="#F09191"/>
</linearGradient>
<linearGradient id="paint27_linear_5742_15562" x1="1218.5" y1="938.968" x2="1032" y2="689.418" gradientUnits="userSpaceOnUse">
<stop stop-color="white"/>
<stop offset="1" stop-color="#F09191"/>
</linearGradient>
<linearGradient id="paint28_linear_5742_15562" x1="1181.19" y1="889.059" x2="994.691" y2="639.508" gradientUnits="userSpaceOnUse">
<stop stop-color="white"/>
<stop offset="1" stop-color="#F09191"/>
</linearGradient>
<linearGradient id="paint29_linear_5742_15562" x1="1143.89" y1="839.154" x2="957.397" y2="589.604" gradientUnits="userSpaceOnUse">
<stop stop-color="white"/>
<stop offset="1" stop-color="#F09191"/>
</linearGradient>
<linearGradient id="paint30_linear_5742_15562" x1="1106.59" y1="789.244" x2="920.095" y2="539.694" gradientUnits="userSpaceOnUse">
<stop stop-color="white"/>
<stop offset="1" stop-color="#F09191"/>
</linearGradient>
<linearGradient id="paint31_linear_5742_15562" x1="1069.3" y1="739.333" x2="882.801" y2="489.783" gradientUnits="userSpaceOnUse">
<stop stop-color="white"/>
<stop offset="1" stop-color="#F09191"/>
</linearGradient>
<linearGradient id="paint32_linear_5742_15562" x1="1031.99" y1="689.422" x2="845.491" y2="439.871" gradientUnits="userSpaceOnUse">
<stop stop-color="white"/>
<stop offset="1" stop-color="#F09191"/>
</linearGradient>
<linearGradient id="paint33_linear_5742_15562" x1="994.694" y1="639.511" x2="808.197" y2="389.961" gradientUnits="userSpaceOnUse">
<stop stop-color="white"/>
<stop offset="1" stop-color="#F09191"/>
</linearGradient>
<linearGradient id="paint34_linear_5742_15562" x1="957.392" y1="589.601" x2="770.896" y2="340.051" gradientUnits="userSpaceOnUse">
<stop stop-color="white"/>
<stop offset="1" stop-color="#F09191"/>
</linearGradient>
<linearGradient id="paint35_linear_5742_15562" x1="920.099" y1="539.69" x2="733.603" y2="290.14" gradientUnits="userSpaceOnUse">
<stop stop-color="white"/>
<stop offset="1" stop-color="#F09191"/>
</linearGradient>
<linearGradient id="paint36_linear_5742_15562" x1="882.788" y1="489.782" x2="696.292" y2="240.231" gradientUnits="userSpaceOnUse">
<stop stop-color="white"/>
<stop offset="1" stop-color="#F09191"/>
</linearGradient>
<linearGradient id="paint37_linear_5742_15562" x1="845.495" y1="439.871" x2="658.999" y2="190.321" gradientUnits="userSpaceOnUse">
<stop stop-color="white"/>
<stop offset="1" stop-color="#F09191"/>
</linearGradient>
<linearGradient id="paint38_linear_5742_15562" x1="808.2" y1="389.96" x2="621.704" y2="140.41" gradientUnits="userSpaceOnUse">
<stop stop-color="white"/>
<stop offset="1" stop-color="#F09191"/>
</linearGradient>
<linearGradient id="paint39_linear_5742_15562" x1="770.9" y1="340.048" x2="584.403" y2="90.498" gradientUnits="userSpaceOnUse">
<stop stop-color="white"/>
<stop offset="1" stop-color="#F09191"/>
</linearGradient>
<linearGradient id="paint40_linear_5742_15562" x1="733.591" y1="290.139" x2="547.095" y2="40.5886" gradientUnits="userSpaceOnUse">
<stop stop-color="white"/>
<stop offset="1" stop-color="#F09191"/>
</linearGradient>
<linearGradient id="paint41_linear_5742_15562" x1="696.296" y1="240.228" x2="509.8" y2="-9.32256" gradientUnits="userSpaceOnUse">
<stop stop-color="white"/>
<stop offset="1" stop-color="#F09191"/>
</linearGradient>
<linearGradient id="paint42_linear_5742_15562" x1="659.003" y1="190.323" x2="472.507" y2="-59.2274" gradientUnits="userSpaceOnUse">
<stop stop-color="white"/>
<stop offset="1" stop-color="#F09191"/>
</linearGradient>
<linearGradient id="paint43_linear_5742_15562" x1="621.7" y1="140.413" x2="435.204" y2="-109.138" gradientUnits="userSpaceOnUse">
<stop stop-color="white"/>
<stop offset="1" stop-color="#F09191"/>
</linearGradient>
<linearGradient id="paint44_linear_5742_15562" x1="155.769" y1="0" x2="155.769" y2="311.537" gradientUnits="userSpaceOnUse">
<stop stop-color="white"/>
<stop offset="1" stop-color="#F09191"/>
</linearGradient>
<linearGradient id="paint45_linear_5742_15562" x1="155.769" y1="0" x2="155.769" y2="311.537" gradientUnits="userSpaceOnUse">
<stop stop-color="white"/>
<stop offset="1" stop-color="#F09191"/>
</linearGradient>
<linearGradient id="paint46_linear_5742_15562" x1="155.769" y1="0" x2="155.769" y2="311.537" gradientUnits="userSpaceOnUse">
<stop stop-color="white"/>
<stop offset="1" stop-color="#F09191"/>
</linearGradient>
<linearGradient id="paint47_linear_5742_15562" x1="155.769" y1="0" x2="155.769" y2="311.537" gradientUnits="userSpaceOnUse">
<stop stop-color="white"/>
<stop offset="1" stop-color="#F09191"/>
</linearGradient>
<linearGradient id="paint48_linear_5742_15562" x1="155.769" y1="0" x2="155.769" y2="311.537" gradientUnits="userSpaceOnUse">
<stop stop-color="white"/>
<stop offset="1" stop-color="#F09191"/>
</linearGradient>
<linearGradient id="paint49_linear_5742_15562" x1="155.769" y1="0" x2="155.769" y2="311.537" gradientUnits="userSpaceOnUse">
<stop stop-color="white"/>
<stop offset="1" stop-color="#F09191"/>
</linearGradient>
<linearGradient id="paint50_linear_5742_15562" x1="155.769" y1="0" x2="155.769" y2="311.537" gradientUnits="userSpaceOnUse">
<stop stop-color="white"/>
<stop offset="1" stop-color="#F09191"/>
</linearGradient>
<linearGradient id="paint51_linear_5742_15562" x1="155.769" y1="0" x2="155.769" y2="311.537" gradientUnits="userSpaceOnUse">
<stop stop-color="white"/>
<stop offset="1" stop-color="#F09191"/>
</linearGradient>
<linearGradient id="paint52_linear_5742_15562" x1="155.769" y1="0" x2="155.769" y2="311.537" gradientUnits="userSpaceOnUse">
<stop stop-color="white"/>
<stop offset="1" stop-color="#F09191"/>
</linearGradient>
<linearGradient id="paint53_linear_5742_15562" x1="155.769" y1="0" x2="155.769" y2="311.537" gradientUnits="userSpaceOnUse">
<stop stop-color="white"/>
<stop offset="1" stop-color="#F09191"/>
</linearGradient>
<linearGradient id="paint54_linear_5742_15562" x1="155.769" y1="0" x2="155.769" y2="311.537" gradientUnits="userSpaceOnUse">
<stop stop-color="white"/>
<stop offset="1" stop-color="#F09191"/>
</linearGradient>
<linearGradient id="paint55_linear_5742_15562" x1="155.769" y1="0" x2="155.769" y2="311.537" gradientUnits="userSpaceOnUse">
<stop stop-color="white"/>
<stop offset="1" stop-color="#F09191"/>
</linearGradient>
<linearGradient id="paint56_linear_5742_15562" x1="155.769" y1="0" x2="155.769" y2="311.537" gradientUnits="userSpaceOnUse">
<stop stop-color="white"/>
<stop offset="1" stop-color="#F09191"/>
</linearGradient>
<linearGradient id="paint57_linear_5742_15562" x1="155.769" y1="0" x2="155.769" y2="311.537" gradientUnits="userSpaceOnUse">
<stop stop-color="white"/>
<stop offset="1" stop-color="#F09191"/>
</linearGradient>
<linearGradient id="paint58_linear_5742_15562" x1="155.769" y1="0" x2="155.769" y2="311.537" gradientUnits="userSpaceOnUse">
<stop stop-color="white"/>
<stop offset="1" stop-color="#F09191"/>
</linearGradient>
<linearGradient id="paint59_linear_5742_15562" x1="155.769" y1="0" x2="155.769" y2="311.537" gradientUnits="userSpaceOnUse">
<stop stop-color="white"/>
<stop offset="1" stop-color="#F09191"/>
</linearGradient>
<linearGradient id="paint60_linear_5742_15562" x1="155.769" y1="0" x2="155.769" y2="311.537" gradientUnits="userSpaceOnUse">
<stop stop-color="white"/>
<stop offset="1" stop-color="#F09191"/>
</linearGradient>
<linearGradient id="paint61_linear_5742_15562" x1="155.769" y1="0" x2="155.769" y2="311.537" gradientUnits="userSpaceOnUse">
<stop stop-color="white"/>
<stop offset="1" stop-color="#F09191"/>
</linearGradient>
<linearGradient id="paint62_linear_5742_15562" x1="155.769" y1="0" x2="155.769" y2="311.537" gradientUnits="userSpaceOnUse">
<stop stop-color="white"/>
<stop offset="1" stop-color="#F09191"/>
</linearGradient>
<linearGradient id="paint63_linear_5742_15562" x1="155.769" y1="0" x2="155.769" y2="311.537" gradientUnits="userSpaceOnUse">
<stop stop-color="white"/>
<stop offset="1" stop-color="#F09191"/>
</linearGradient>
<linearGradient id="paint64_linear_5742_15562" x1="155.769" y1="0" x2="155.769" y2="311.537" gradientUnits="userSpaceOnUse">
<stop stop-color="white"/>
<stop offset="1" stop-color="#F09191"/>
</linearGradient>
<linearGradient id="paint65_linear_5742_15562" x1="155.769" y1="0" x2="155.769" y2="311.537" gradientUnits="userSpaceOnUse">
<stop stop-color="white"/>
<stop offset="1" stop-color="#F09191"/>
</linearGradient>
<linearGradient id="paint66_linear_5742_15562" x1="155.769" y1="0" x2="155.769" y2="311.537" gradientUnits="userSpaceOnUse">
<stop stop-color="white"/>
<stop offset="1" stop-color="#F09191"/>
</linearGradient>
<linearGradient id="paint67_linear_5742_15562" x1="155.769" y1="0" x2="155.769" y2="311.537" gradientUnits="userSpaceOnUse">
<stop stop-color="white"/>
<stop offset="1" stop-color="#F09191"/>
</linearGradient>
<linearGradient id="paint68_linear_5742_15562" x1="155.769" y1="0" x2="155.769" y2="311.537" gradientUnits="userSpaceOnUse">
<stop stop-color="white"/>
<stop offset="1" stop-color="#F09191"/>
</linearGradient>
<linearGradient id="paint69_linear_5742_15562" x1="155.769" y1="0" x2="155.769" y2="311.537" gradientUnits="userSpaceOnUse">
<stop stop-color="white"/>
<stop offset="1" stop-color="#F09191"/>
</linearGradient>
<linearGradient id="paint70_linear_5742_15562" x1="155.769" y1="0" x2="155.769" y2="311.537" gradientUnits="userSpaceOnUse">
<stop stop-color="white"/>
<stop offset="1" stop-color="#F09191"/>
</linearGradient>
<linearGradient id="paint71_linear_5742_15562" x1="155.769" y1="0" x2="155.769" y2="311.537" gradientUnits="userSpaceOnUse">
<stop stop-color="white"/>
<stop offset="1" stop-color="#F09191"/>
</linearGradient>
<linearGradient id="paint72_linear_5742_15562" x1="155.769" y1="0" x2="155.769" y2="311.537" gradientUnits="userSpaceOnUse">
<stop stop-color="white"/>
<stop offset="1" stop-color="#F09191"/>
</linearGradient>
<linearGradient id="paint73_linear_5742_15562" x1="155.769" y1="0" x2="155.769" y2="311.537" gradientUnits="userSpaceOnUse">
<stop stop-color="white"/>
<stop offset="1" stop-color="#F09191"/>
</linearGradient>
<linearGradient id="paint74_linear_5742_15562" x1="155.769" y1="0" x2="155.769" y2="311.537" gradientUnits="userSpaceOnUse">
<stop stop-color="white"/>
<stop offset="1" stop-color="#F09191"/>
</linearGradient>
<linearGradient id="paint75_linear_5742_15562" x1="155.769" y1="0" x2="155.769" y2="311.537" gradientUnits="userSpaceOnUse">
<stop stop-color="white"/>
<stop offset="1" stop-color="#F09191"/>
</linearGradient>
<linearGradient id="paint76_linear_5742_15562" x1="155.769" y1="0" x2="155.769" y2="311.537" gradientUnits="userSpaceOnUse">
<stop stop-color="white"/>
<stop offset="1" stop-color="#F09191"/>
</linearGradient>
<linearGradient id="paint77_linear_5742_15562" x1="155.769" y1="0" x2="155.769" y2="311.537" gradientUnits="userSpaceOnUse">
<stop stop-color="white"/>
<stop offset="1" stop-color="#F09191"/>
</linearGradient>
<linearGradient id="paint78_linear_5742_15562" x1="155.769" y1="0" x2="155.769" y2="311.537" gradientUnits="userSpaceOnUse">
<stop stop-color="white"/>
<stop offset="1" stop-color="#F09191"/>
</linearGradient>
<linearGradient id="paint79_linear_5742_15562" x1="155.769" y1="0" x2="155.769" y2="311.537" gradientUnits="userSpaceOnUse">
<stop stop-color="white"/>
<stop offset="1" stop-color="#F09191"/>
</linearGradient>
<linearGradient id="paint80_linear_5742_15562" x1="155.769" y1="0" x2="155.769" y2="311.537" gradientUnits="userSpaceOnUse">
<stop stop-color="white"/>
<stop offset="1" stop-color="#F09191"/>
</linearGradient>
<linearGradient id="paint81_linear_5742_15562" x1="155.769" y1="0" x2="155.769" y2="311.537" gradientUnits="userSpaceOnUse">
<stop stop-color="white"/>
<stop offset="1" stop-color="#F09191"/>
</linearGradient>
<linearGradient id="paint82_linear_5742_15562" x1="155.769" y1="0" x2="155.769" y2="311.537" gradientUnits="userSpaceOnUse">
<stop stop-color="white"/>
<stop offset="1" stop-color="#F09191"/>
</linearGradient>
<linearGradient id="paint83_linear_5742_15562" x1="155.769" y1="0" x2="155.769" y2="311.537" gradientUnits="userSpaceOnUse">
<stop stop-color="white"/>
<stop offset="1" stop-color="#F09191"/>
</linearGradient>
<linearGradient id="paint84_linear_5742_15562" x1="155.769" y1="0" x2="155.769" y2="311.537" gradientUnits="userSpaceOnUse">
<stop stop-color="white"/>
<stop offset="1" stop-color="#F09191"/>
</linearGradient>
<linearGradient id="paint85_linear_5742_15562" x1="155.769" y1="0" x2="155.769" y2="311.537" gradientUnits="userSpaceOnUse">
<stop stop-color="white"/>
<stop offset="1" stop-color="#F09191"/>
</linearGradient>
<linearGradient id="paint86_linear_5742_15562" x1="155.769" y1="0" x2="155.769" y2="311.537" gradientUnits="userSpaceOnUse">
<stop stop-color="white"/>
<stop offset="1" stop-color="#F09191"/>
</linearGradient>
<linearGradient id="paint87_linear_5742_15562" x1="155.769" y1="0" x2="155.769" y2="311.537" gradientUnits="userSpaceOnUse">
<stop stop-color="white"/>
<stop offset="1" stop-color="#F09191"/>
</linearGradient>
<clipPath id="clip0_5742_15562">
<rect width="1840" height="1080" fill="white"/>
</clipPath>
</defs>
</svg>
